<?xml version="1.0" standalone="no"?>
<!DOCTYPE svg PUBLIC "-//W3C//DTD SVG 20010904//EN"
 "http://www.w3.org/TR/2001/REC-SVG-20010904/DTD/svg10.dtd">
<svg version="1.0" xmlns="http://www.w3.org/2000/svg"
 width="16.000000pt" height="16.000000pt" viewBox="0 0 16.000000 16.000000"
 preserveAspectRatio="xMidYMid meet">

<g transform="translate(0.000000,16.000000) scale(0.100000,-0.100000)"
fill="#000000" stroke="none">
<path d="M40 120 c-11 -11 -20 -29 -20 -40 0 -26 34 -60 60 -60 26 0 60 34 60
60 0 26 -34 60 -60 60 -11 0 -29 -9 -40 -20z m75 -6 c21 -22 4 -44 -20 -24
-12 10 -18 10 -30 0 -24 -20 -41 2 -20 24 21 21 49 21 70 0z m-25 -34 c0 -5
-4 -10 -10 -10 -5 0 -10 5 -10 10 0 6 5 10 10 10 6 0 10 -4 10 -10z m33 -26
c-11 -29 -75 -29 -86 0 -4 10 6 14 43 14 37 0 47 -4 43 -14z"/>
</g>
</svg>
